<svg xmlns="http://www.w3.org/2000/svg" xmlns:xlink="http://www.w3.org/1999/xlink" width="500" zoomAndPan="magnify" viewBox="0 0 375 374.999991" height="500" preserveAspectRatio="xMidYMid meet" version="1.0"><defs><clipPath id="6a1f2a2567"><path d="M 111 128 L 223 128 L 223 250 L 111 250 Z M 111 128 " clip-rule="nonzero"/></clipPath><clipPath id="91cc67bc4d"><path d="M 158.492188 128.78125 L 222.449219 163.671875 L 175.425781 249.871094 L 111.46875 214.984375 Z M 158.492188 128.78125 " clip-rule="nonzero"/></clipPath><clipPath id="8eb14adf9b"><path d="M 37 116 L 194.363281 116 L 194.363281 247 L 37 247 Z M 37 116 " clip-rule="nonzero"/></clipPath><clipPath id="f2a59db04a"><path d="M 20.152344 165 L 78 165 L 78 184 L 20.152344 184 Z M 20.152344 165 " clip-rule="nonzero"/></clipPath><clipPath id="fb246395a0"><path d="M 162.472656 124 L 360 124 L 360 253 L 162.472656 253 Z M 162.472656 124 " clip-rule="nonzero"/></clipPath></defs><g clip-path="url(#6a1f2a2567)"><g clip-path="url(#91cc67bc4d)"><path fill="#00dc82" d="M 158.492188 128.785156 L 222.445312 163.675781 L 175.425781 249.867188 L 111.472656 214.980469 L 158.492188 128.785156 " fill-opacity="1" fill-rule="nonzero"/></g></g><path fill="#80eec0" d="M 188.28125 144.109375 C 190.261719 147.226562 191.929688 150.210938 193.414062 153.773438 C 175.84375 145.917969 158.613281 157.125 155.636719 164.222656 C 156.421875 163.859375 169.925781 157.730469 186.246094 173.421875 C 158.21875 176.695312 160.828125 189.136719 146.488281 193.066406 C 157.101562 201.890625 166.691406 194.191406 175.164062 198.773438 C 190.15625 207.289062 182.832031 218.421875 166.039062 214.675781 C 172.636719 223.109375 182.023438 226.019531 192.113281 223.84375 C 192.164062 224.8125 192.136719 225.753906 192.058594 226.671875 L 192.058594 226.699219 C 187.523438 230.3125 180.746094 230.183594 174.828125 228.035156 C 170.683594 226.722656 167.003906 223.003906 164.398438 219.730469 C 162.183594 217.164062 160.4375 212.84375 157.4375 210.929688 C 157.648438 210.796875 157.855469 210.667969 158.089844 210.5625 C 161.792969 208.179688 170.917969 211.21875 173.523438 207.289062 C 177.851562 201.183594 163.304688 204.90625 161.558594 204.90625 C 156.132812 204.667969 150.710938 202.496094 147.007812 198.566406 C 144.507812 196.050781 140.675781 188.140625 136.6875 186.753906 C 140.050781 184.761719 142.890625 182.691406 146.566406 181.328125 C 151.179688 179.601562 155.117188 177.007812 157.621094 172.792969 C 153.867188 172.136719 151.027344 170.117188 147.582031 168.390625 C 153.632812 162.546875 156.890625 153.800781 163.09375 148.140625 C 171.253906 140.988281 179.832031 140.390625 188.28125 144.109375 " fill-opacity="1" fill-rule="nonzero"/><path fill="#000001" d="M 189.347656 142.011719 C 188.488281 141.933594 187.679688 141.933594 186.898438 141.988281 C 187.367188 142.691406 187.835938 143.402344 188.28125 144.109375 C 179.832031 140.390625 171.253906 140.988281 163.09375 148.140625 C 156.890625 153.800781 153.632812 162.546875 147.582031 168.390625 C 151.023438 170.117188 153.867188 172.136719 157.621094 172.789062 C 155.117188 177.007812 151.179688 179.601562 146.566406 181.332031 C 142.890625 182.691406 140.050781 184.761719 136.6875 186.753906 C 140.675781 188.140625 144.507812 196.050781 147.007812 198.566406 C 150.710938 202.496094 156.132812 204.667969 161.558594 204.90625 C 163.304688 204.90625 177.851562 201.183594 173.523438 207.289062 C 170.917969 211.21875 161.792969 208.179688 158.089844 210.5625 C 157.855469 210.667969 157.648438 210.796875 157.4375 210.929688 C 160.4375 212.84375 162.183594 217.164062 164.398438 219.730469 C 167.003906 223.003906 170.683594 226.722656 174.828125 228.035156 C 180.746094 230.183594 187.523438 230.3125 192.058594 226.699219 C 191.957031 228.085938 191.667969 229.421875 191.277344 230.703125 C 185.414062 235.738281 178.007812 239.296875 171.335938 240.921875 C 167.003906 241.785156 162.210938 241.996094 157.878906 241.785156 C 153.527344 241.339844 150.476562 239.167969 146.359375 238.066406 C 150.921875 238.300781 156.785156 235.894531 159.394531 231.753906 C 166.121094 220.621094 147.660156 210.351562 138.746094 210.144531 C 127.664062 209.90625 114.839844 220.019531 106.601562 216.246094 C 111.605469 216.691406 116.167969 206.871094 120.289062 204.667969 C 123.964844 202.835938 126.988281 201.082031 130.402344 200.085938 C 126.804688 194.425781 121.617188 189.761719 115.074219 187.878906 C 105.949219 185.023438 95.519531 194.480469 89 189.84375 C 95.730469 188.953125 99.640625 181.09375 105.949219 178.917969 C 112.753906 176.695312 121.070312 177.085938 127.613281 180.253906 C 126.960938 169.542969 120.207031 157.492188 110.511719 152.515625 C 119.089844 146.621094 129.414062 156.65625 138.746094 156.207031 C 148.523438 155.789062 161.347656 147.277344 155.691406 135.910156 C 153.734375 132.214844 149.824219 130.460938 146.359375 129.152344 C 163.617188 123.519531 177.746094 129.230469 189.347656 142.011719 " fill-opacity="1" fill-rule="nonzero"/><g clip-path="url(#8eb14adf9b)"><path fill="#00dc82" d="M 163.773438 117.414062 C 171.515625 118.621094 179.859375 122.996094 186.246094 130.855469 C 190.339844 136.25 191.695312 138.867188 194.355469 142.902344 C 192.632812 142.402344 190.914062 142.117188 189.347656 142.011719 C 177.746094 129.230469 163.617188 123.515625 146.359375 129.152344 C 149.824219 130.460938 153.734375 132.214844 155.691406 135.910156 C 161.347656 147.277344 148.523438 155.789062 138.746094 156.207031 C 129.414062 156.652344 119.089844 146.621094 110.511719 152.515625 C 120.207031 157.492188 126.960938 169.542969 127.613281 180.253906 C 121.066406 177.085938 112.753906 176.695312 105.949219 178.917969 C 99.640625 181.09375 95.726562 188.953125 89 189.84375 C 95.519531 194.480469 105.949219 185.023438 115.074219 187.878906 C 121.617188 189.761719 126.804688 194.425781 130.402344 200.085938 C 126.988281 201.082031 123.964844 202.835938 120.289062 204.667969 C 116.167969 206.871094 111.605469 216.691406 106.601562 216.246094 C 114.839844 220.019531 127.664062 209.90625 138.746094 210.144531 C 147.660156 210.351562 166.121094 220.621094 159.394531 231.753906 C 156.785156 235.890625 150.921875 238.300781 146.359375 238.066406 C 150.476562 239.167969 153.527344 241.339844 157.878906 241.785156 C 162.210938 241.996094 167.003906 241.785156 171.335938 240.921875 C 178.007812 239.296875 185.414062 235.738281 191.277344 230.703125 C 185.90625 247.835938 156.132812 255.433594 118.800781 233.324219 C 120.859375 225.570312 159.417969 240.320312 153.65625 223.84375 C 132.226562 202.886719 97.839844 240.871094 78.703125 218.605469 C 98.699219 219.675781 100.65625 202.445312 117.914062 201.578125 C 113.640625 199.824219 108.03125 197.597656 96.300781 200.214844 C 89.289062 201.789062 82.613281 205.507812 75.445312 206.816406 C 63.894531 210.246094 44.160156 203.804688 37.875 189.1875 C 54.824219 194.6875 66.320312 191.757812 81.308594 181.277344 C 87.828125 176.695312 93.382812 170.800781 101.855469 170.144531 C 106.652344 170.144531 111.789062 168.652344 116.558594 171.820312 C 108.347656 165.351562 111.058594 162.992188 92.597656 157.675781 C 84.570312 155.394531 74.792969 157.046875 66.972656 162.289062 C 72.1875 153.773438 80.996094 144.917969 90.121094 140.988281 C 106.417969 133.785156 116.507812 137.402344 132.148438 143.953125 C 140.621094 147.226562 156.914062 146.570312 143.230469 136.746094 C 136.058594 132.164062 129.542969 137.714844 120.417969 125.613281 C 134.105469 125.613281 144.871094 114.480469 163.773438 117.414062 " fill-opacity="1" fill-rule="nonzero"/></g><g clip-path="url(#f2a59db04a)"><path fill="#00dc82" d="M 77.269531 170.09375 C 72.367188 177.425781 60.792969 185.3125 48.695312 183.503906 C 41.945312 182.351562 32.429688 170.40625 20.148438 174.730469 C 34.511719 153.878906 62.382812 174.546875 77.269531 170.09375 " fill-opacity="1" fill-rule="nonzero"/></g><g clip-path="url(#fb246395a0)"><path fill="#00dc82" d="M 273.007812 252.957031 L 346.253906 252.957031 C 348.578125 252.957031 350.863281 252.363281 352.878906 251.238281 C 354.894531 250.113281 356.566406 248.492188 357.730469 246.539062 C 358.890625 244.589844 359.503906 242.375 359.503906 240.121094 C 359.5 237.871094 358.886719 235.65625 357.722656 233.707031 L 308.535156 151.203125 C 307.371094 149.253906 305.699219 147.632812 303.683594 146.507812 C 301.671875 145.378906 299.386719 144.785156 297.058594 144.785156 C 294.734375 144.785156 292.449219 145.378906 290.433594 146.507812 C 288.417969 147.632812 286.746094 149.253906 285.585938 151.203125 L 273.007812 172.3125 L 248.414062 131.035156 C 247.253906 129.082031 245.578125 127.464844 243.566406 126.335938 C 241.550781 125.210938 239.265625 124.617188 236.9375 124.617188 C 234.613281 124.617188 232.328125 125.210938 230.3125 126.335938 C 228.296875 127.464844 226.625 129.082031 225.460938 131.035156 L 164.25 233.707031 C 163.085938 235.65625 162.472656 237.871094 162.46875 240.121094 C 162.46875 242.375 163.082031 244.589844 164.242188 246.539062 C 165.40625 248.492188 167.078125 250.113281 169.09375 251.238281 C 171.109375 252.363281 173.394531 252.957031 175.722656 252.957031 L 221.699219 252.957031 C 239.914062 252.957031 253.347656 245.207031 262.59375 230.09375 L 285.035156 192.457031 L 297.054688 172.3125 L 333.132812 232.816406 L 285.035156 232.816406 Z M 220.949219 232.792969 L 188.863281 232.789062 L 236.960938 152.121094 L 260.957031 192.457031 L 244.890625 219.414062 C 238.75 229.222656 231.777344 232.792969 220.949219 232.792969 Z M 220.949219 232.792969 " fill-opacity="1" fill-rule="nonzero"/></g></svg>